<mxfile host="app.diagrams.net" agent="Mozilla/5.0 (Windows NT 10.0; Win64; x64) AppleWebKit/537.36 (KHTML, like Gecko) Chrome/128.0.0.0 YaBrowser/24.10.0.0 Safari/537.36" version="25.0.3">
  <diagram name="Страница — 1" id="FZuVYSKQKKseB5JXQPXO">
    <mxGraphModel dx="1290" dy="567" grid="1" gridSize="10" guides="1" tooltips="1" connect="1" arrows="1" fold="1" page="1" pageScale="1" pageWidth="827" pageHeight="1169" math="0" shadow="0">
      <root>
        <mxCell id="0" />
        <mxCell id="1" parent="0" />
        <mxCell id="h4m05iVEqOgtliCkyHRx-2" value="Начало" style="strokeWidth=2;html=1;shape=mxgraph.flowchart.terminator;whiteSpace=wrap;" parent="1" vertex="1">
          <mxGeometry x="360" y="40" width="130" height="40" as="geometry" />
        </mxCell>
        <mxCell id="S8c5WioNbydj_uUpYkrR-1" value="" style="edgeStyle=orthogonalEdgeStyle;rounded=0;orthogonalLoop=1;jettySize=auto;html=1;" edge="1" parent="1" source="S8c5WioNbydj_uUpYkrR-2" target="S8c5WioNbydj_uUpYkrR-5">
          <mxGeometry relative="1" as="geometry" />
        </mxCell>
        <mxCell id="S8c5WioNbydj_uUpYkrR-2" value="Начало" style="strokeWidth=2;html=1;shape=mxgraph.flowchart.terminator;whiteSpace=wrap;" vertex="1" parent="1">
          <mxGeometry x="360" y="40" width="130" height="40" as="geometry" />
        </mxCell>
        <mxCell id="S8c5WioNbydj_uUpYkrR-3" value="Конец" style="strokeWidth=2;html=1;shape=mxgraph.flowchart.terminator;whiteSpace=wrap;" vertex="1" parent="1">
          <mxGeometry x="378.75" y="800" width="130" height="40" as="geometry" />
        </mxCell>
        <mxCell id="S8c5WioNbydj_uUpYkrR-4" value="" style="edgeStyle=orthogonalEdgeStyle;rounded=0;orthogonalLoop=1;jettySize=auto;html=1;" edge="1" parent="1" source="S8c5WioNbydj_uUpYkrR-5" target="S8c5WioNbydj_uUpYkrR-7">
          <mxGeometry relative="1" as="geometry" />
        </mxCell>
        <mxCell id="S8c5WioNbydj_uUpYkrR-5" value="Ввод: Действия сотрудника" style="shape=parallelogram;perimeter=parallelogramPerimeter;whiteSpace=wrap;html=1;fixedSize=1;" vertex="1" parent="1">
          <mxGeometry x="338.75" y="120" width="172.5" height="60" as="geometry" />
        </mxCell>
        <mxCell id="S8c5WioNbydj_uUpYkrR-6" value="" style="edgeStyle=orthogonalEdgeStyle;rounded=0;orthogonalLoop=1;jettySize=auto;html=1;" edge="1" parent="1" source="S8c5WioNbydj_uUpYkrR-7" target="S8c5WioNbydj_uUpYkrR-10">
          <mxGeometry relative="1" as="geometry" />
        </mxCell>
        <mxCell id="S8c5WioNbydj_uUpYkrR-7" value="ПО обращается к датасет СЗИ" style="rounded=0;whiteSpace=wrap;html=1;" vertex="1" parent="1">
          <mxGeometry x="317.5" y="230" width="215" height="60" as="geometry" />
        </mxCell>
        <mxCell id="S8c5WioNbydj_uUpYkrR-8" style="edgeStyle=orthogonalEdgeStyle;rounded=0;orthogonalLoop=1;jettySize=auto;html=1;exitX=0;exitY=0.5;exitDx=0;exitDy=0;entryX=0.5;entryY=0;entryDx=0;entryDy=0;" edge="1" parent="1" source="S8c5WioNbydj_uUpYkrR-10" target="S8c5WioNbydj_uUpYkrR-11">
          <mxGeometry relative="1" as="geometry" />
        </mxCell>
        <mxCell id="S8c5WioNbydj_uUpYkrR-9" style="edgeStyle=orthogonalEdgeStyle;rounded=0;orthogonalLoop=1;jettySize=auto;html=1;exitX=1;exitY=0.5;exitDx=0;exitDy=0;entryX=0.5;entryY=0;entryDx=0;entryDy=0;" edge="1" parent="1" source="S8c5WioNbydj_uUpYkrR-10" target="S8c5WioNbydj_uUpYkrR-13">
          <mxGeometry relative="1" as="geometry" />
        </mxCell>
        <mxCell id="S8c5WioNbydj_uUpYkrR-10" value="№ techniques Mitre найден?" style="rhombus;whiteSpace=wrap;html=1;" vertex="1" parent="1">
          <mxGeometry x="338.75" y="320" width="172.5" height="80" as="geometry" />
        </mxCell>
        <mxCell id="S8c5WioNbydj_uUpYkrR-11" value="Вывод сообщения об ошибке поиска" style="rounded=0;whiteSpace=wrap;html=1;" vertex="1" parent="1">
          <mxGeometry x="240" y="400" width="120" height="60" as="geometry" />
        </mxCell>
        <mxCell id="S8c5WioNbydj_uUpYkrR-12" value="" style="edgeStyle=orthogonalEdgeStyle;rounded=0;orthogonalLoop=1;jettySize=auto;html=1;" edge="1" parent="1" source="S8c5WioNbydj_uUpYkrR-13" target="S8c5WioNbydj_uUpYkrR-15">
          <mxGeometry relative="1" as="geometry" />
        </mxCell>
        <mxCell id="S8c5WioNbydj_uUpYkrR-13" value="Переход к данным&amp;nbsp;&amp;nbsp;techniques" style="rounded=0;whiteSpace=wrap;html=1;" vertex="1" parent="1">
          <mxGeometry x="520" y="400" width="120" height="60" as="geometry" />
        </mxCell>
        <mxCell id="S8c5WioNbydj_uUpYkrR-14" value="" style="edgeStyle=orthogonalEdgeStyle;rounded=0;orthogonalLoop=1;jettySize=auto;html=1;" edge="1" parent="1" source="S8c5WioNbydj_uUpYkrR-15" target="S8c5WioNbydj_uUpYkrR-20">
          <mxGeometry relative="1" as="geometry" />
        </mxCell>
        <mxCell id="S8c5WioNbydj_uUpYkrR-15" value="Получение списка СЗИ" style="rounded=0;whiteSpace=wrap;html=1;" vertex="1" parent="1">
          <mxGeometry x="485" y="510" width="190" height="60" as="geometry" />
        </mxCell>
        <mxCell id="S8c5WioNbydj_uUpYkrR-16" value="Да" style="text;html=1;align=center;verticalAlign=middle;whiteSpace=wrap;rounded=0;" vertex="1" parent="1">
          <mxGeometry x="497.5" y="330" width="60" height="30" as="geometry" />
        </mxCell>
        <mxCell id="S8c5WioNbydj_uUpYkrR-17" value="Нет" style="text;html=1;align=center;verticalAlign=middle;whiteSpace=wrap;rounded=0;" vertex="1" parent="1">
          <mxGeometry x="300" y="330" width="60" height="30" as="geometry" />
        </mxCell>
        <mxCell id="S8c5WioNbydj_uUpYkrR-18" style="edgeStyle=orthogonalEdgeStyle;rounded=0;orthogonalLoop=1;jettySize=auto;html=1;exitX=0.5;exitY=1;exitDx=0;exitDy=0;entryX=0;entryY=0.5;entryDx=0;entryDy=0;entryPerimeter=0;" edge="1" parent="1" source="S8c5WioNbydj_uUpYkrR-11" target="S8c5WioNbydj_uUpYkrR-3">
          <mxGeometry relative="1" as="geometry" />
        </mxCell>
        <mxCell id="S8c5WioNbydj_uUpYkrR-19" value="" style="edgeStyle=orthogonalEdgeStyle;rounded=0;orthogonalLoop=1;jettySize=auto;html=1;entryX=0.5;entryY=0;entryDx=0;entryDy=0;" edge="1" parent="1" source="S8c5WioNbydj_uUpYkrR-20" target="S8c5WioNbydj_uUpYkrR-22">
          <mxGeometry relative="1" as="geometry">
            <mxPoint x="579.375" y="700" as="targetPoint" />
          </mxGeometry>
        </mxCell>
        <mxCell id="S8c5WioNbydj_uUpYkrR-20" value="Создание документа Описание функций выбранных СЗИ" style="rounded=0;whiteSpace=wrap;html=1;" vertex="1" parent="1">
          <mxGeometry x="485" y="600" width="188.75" height="60" as="geometry" />
        </mxCell>
        <mxCell id="S8c5WioNbydj_uUpYkrR-21" value="" style="edgeStyle=orthogonalEdgeStyle;rounded=0;orthogonalLoop=1;jettySize=auto;html=1;" edge="1" parent="1" source="S8c5WioNbydj_uUpYkrR-22" target="S8c5WioNbydj_uUpYkrR-3">
          <mxGeometry relative="1" as="geometry" />
        </mxCell>
        <mxCell id="S8c5WioNbydj_uUpYkrR-22" value="Вывод: документ Описание функций выбранных СЗИ" style="shape=parallelogram;perimeter=parallelogramPerimeter;whiteSpace=wrap;html=1;fixedSize=1;" vertex="1" parent="1">
          <mxGeometry x="317.5" y="710" width="252.5" height="60" as="geometry" />
        </mxCell>
      </root>
    </mxGraphModel>
  </diagram>
</mxfile>
